<?xml version="1.0" standalone="no"?>
<!DOCTYPE svg PUBLIC "-//W3C//DTD SVG 20010904//EN"
 "http://www.w3.org/TR/2001/REC-SVG-20010904/DTD/svg10.dtd">
<svg version="1.0" xmlns="http://www.w3.org/2000/svg"
 width="512.000000pt" height="512.000000pt" viewBox="0 0 512.000000 512.000000"
 preserveAspectRatio="xMidYMid meet">

<g transform="translate(0.000000,512.000000) scale(0.100000,-0.100000)"
fill="#000000" stroke="none">
<path d="M735 4146 c-37 -16 -70 -52 -84 -89 -8 -20 -11 -430 -11 -1321 l0
-1293 -63 -5 c-128 -11 -214 -88 -232 -208 -5 -36 7 -96 60 -310 36 -146 71
-278 77 -294 17 -43 65 -94 112 -119 l41 -22 1925 0 1925 0 40 22 c51 27 90
68 110 115 8 21 45 156 81 300 53 213 64 272 59 308 -18 119 -105 197 -232
208 l-63 5 -2 1307 -3 1307 -29 37 c-54 71 92 66 -1888 66 -1472 -1 -1798 -3
-1823 -14z m3425 -1506 l0 -1200 -1600 0 -1600 0 0 1200 0 1200 1600 0 1600 0
0 -1200z m-2070 -1567 c10 -32 27 -56 53 -77 l39 -31 351 -3 c194 -2 367 0
385 3 45 8 109 73 118 119 l6 36 694 0 c382 0 694 -3 694 -7 0 -5 -16 -77 -37
-160 l-37 -153 -1796 0 -1796 0 -37 153 c-21 83 -37 155 -37 160 0 4 312 7
693 7 l692 0 15 -47z"/>
<path d="M2450 3175 l0 -65 -63 -28 c-113 -52 -177 -151 -177 -276 0 -132 79
-213 284 -290 35 -14 76 -32 90 -41 29 -19 34 -56 11 -75 -41 -34 -180 -19
-279 31 -32 17 -60 29 -61 27 -2 -2 -15 -50 -30 -108 -14 -58 -28 -112 -31
-121 -5 -19 92 -61 184 -79 l62 -13 0 -68 0 -69 110 0 110 0 0 75 c0 63 3 76
18 81 136 40 232 163 232 298 0 144 -70 223 -269 302 -51 20 -105 48 -120 61
l-26 23 25 21 c22 19 34 21 96 16 42 -3 98 -16 135 -31 35 -14 64 -24 66 -22
4 4 63 230 60 231 -23 14 -112 45 -142 50 -77 13 -75 11 -75 76 l0 59 -105 0
-105 0 0 -65z"/>
</g>
</svg>
